<svg width="72" height="73" viewBox="0 0 72 73" fill="none" xmlns="http://www.w3.org/2000/svg">
<g clip-path="url(#clip0_8_384)">
<g clip-path="url(#clip1_8_384)">
<path d="M68.9788 19.2951C68.8288 21.0561 67.9198 22.6521 66.5338 23.6451L50.9998 33.8811V46.6221L58.2418 53.6091C59.8618 55.2291 60.4168 57.5811 59.6908 59.7501L56.6908 68.7501C55.8718 71.2041 53.5858 72.8541 50.9998 72.8541C49.9978 72.8541 49.0318 72.6081 48.1318 72.1251C45.6118 70.7601 44.4508 67.5141 45.4288 64.5771L47.1388 59.4501L35.9968 50.1951L44.9968 46.5771V39.7971H26.9968V46.4901L35.9968 50.1981L24.8548 59.4531L26.5618 64.5801C27.5428 67.5171 26.3818 70.7601 23.8678 72.1221C22.9768 72.6021 21.9838 72.8571 20.9938 72.8571C18.4078 72.8571 16.1218 71.2071 15.3028 68.7531L12.3028 59.7531C11.5798 57.5841 12.1348 55.2321 13.7518 53.6121L20.9938 46.4781V33.8841L5.56176 23.7111C4.09776 22.6641 3.17076 21.0561 3.02076 19.2951C2.87376 17.5371 3.51276 15.8031 4.77276 14.5341C6.80376 12.4851 10.2358 12.3051 12.8068 14.1351L26.5258 23.0811C28.0978 24.2001 29.9248 24.7911 31.8088 24.7911H40.1878C42.0718 24.7911 43.8808 24.2121 45.3658 23.1501L59.2948 14.0631C61.7878 12.2841 65.1958 12.4911 67.2268 14.5311C68.4868 15.8001 69.1258 17.5371 68.9788 19.2951ZM47.9998 12.8571C47.9998 6.23906 42.6178 0.857056 35.9998 0.857056C29.3818 0.857056 23.9998 6.23906 23.9998 12.8571C23.9998 19.2651 29.0608 24.4671 35.3848 24.7941H36.6118C42.9388 24.4671 47.9968 19.2651 47.9968 12.8571H47.9998Z" fill="#EBFFFE"/>
</g>
</g>
<defs>
<clipPath id="clip0_8_384">
<rect width="72" height="72" fill="white" transform="translate(0 0.857056)"/>
</clipPath>
<clipPath id="clip1_8_384">
<rect width="72" height="72" fill="white" transform="translate(0 0.857056)"/>
</clipPath>
</defs>
</svg>
