<svg width="72" height="73" viewBox="0 0 72 73" fill="none" xmlns="http://www.w3.org/2000/svg">
<g clip-path="url(#clip0_8_378)">
<path d="M42 72.8571H30C26.0232 72.8523 22.2107 71.2704 19.3987 68.4584C16.5866 65.6464 15.0048 61.8338 15 57.8571V51.8571C15 49.4701 15.9482 47.1809 17.636 45.4931C19.3239 43.8053 21.6131 42.8571 24 42.8571H48C50.387 42.8571 52.6761 43.8053 54.364 45.4931C56.0518 47.1809 57 49.4701 57 51.8571V57.8571C56.9952 61.8338 55.4134 65.6464 52.6013 68.4584C49.7893 71.2704 45.9768 72.8523 42 72.8571ZM51 36.8571V30.8571C51 30.0614 50.6839 29.2983 50.1213 28.7357C49.5587 28.1731 48.7957 27.8571 48 27.8571H24C23.2044 27.8571 22.4413 28.1731 21.8787 28.7357C21.3161 29.2983 21 30.0614 21 30.8571V36.8571H51ZM45 21.8571V5.09905C45.0002 4.37676 44.8157 3.66642 44.464 3.03553C44.1123 2.40464 43.6051 1.87416 42.9907 1.49448C42.3762 1.11481 41.6749 0.898558 40.9533 0.866278C40.2317 0.833999 39.5139 0.986762 38.868 1.31005L31.002 5.24305C29.7994 5.84389 28.7879 6.76787 28.0811 7.91137C27.3742 9.05488 26.9998 10.3727 27 11.7171V21.8571H45Z" fill="#EBFFFE"/>
</g>
<defs>
<clipPath id="clip0_8_378">
<rect width="72" height="72" fill="white" transform="translate(0 0.857056)"/>
</clipPath>
</defs>
</svg>
