<svg width="72" height="73" viewBox="0 0 72 73" fill="none" xmlns="http://www.w3.org/2000/svg">
<g clip-path="url(#clip0_8_368)">
<path d="M48 8.35705C48 5.87305 50.016 3.85705 52.5 3.85705C54.984 3.85705 57 5.87305 57 8.35705C57 10.8411 54.984 12.8571 52.5 12.8571C50.016 12.8571 48 10.8411 48 8.35705ZM26.457 13.0131C28.704 13.3761 30.741 14.3151 32.529 15.5961C32.811 14.7261 33 13.8171 33 12.8541C33 12.5511 32.94 12.2661 32.91 11.972C33.816 12.5211 34.866 12.8541 36 12.8541C39.309 12.8541 42 10.1631 42 6.85405C42 3.54505 39.309 0.85405 36 0.85405C32.898 0.85405 30.372 3.22705 30.063 6.24505C28.461 4.77505 26.343 3.85405 24 3.85405C19.038 3.85405 15 7.89205 15 12.8541C15 13.7811 15.183 14.6601 15.444 15.5031C18.633 13.286 22.566 12.3771 26.457 13.0131ZM64.32 50.0991L60.057 54.362C59.328 54.794 58.374 54.6981 57.744 54.0681C57.057 53.3811 57.006 52.3011 57.588 51.5541L70.68 38.4621C72.438 36.7071 72.438 33.8541 70.68 32.0991C68.922 30.3411 66.075 30.3411 64.317 32.0991L51.243 45.1731C50.496 45.7731 49.401 45.7281 48.708 45.0351C48.084 44.4111 47.985 43.4661 48.408 42.7371L64.683 26.4621C66.441 24.7071 66.441 21.8541 64.683 20.0991C62.925 18.3411 60.078 18.3411 58.32 20.0991L42.246 36.1731C41.499 36.7731 40.404 36.7281 39.711 36.0351C39.087 35.4111 38.988 34.4661 39.411 33.7371L49.686 23.4621C51.444 21.7071 51.444 18.8541 49.686 17.0991C47.928 15.3411 45.081 15.3411 43.323 17.0991L30.006 30.4161V24.8571C30.006 21.5421 27.321 18.8571 24.006 18.8571C20.691 18.8571 18.006 21.5421 18.006 24.8571V48.0951C18.006 54.5751 20.529 60.6681 25.113 65.2521C30.183 70.3221 36.846 72.8571 43.506 72.8571C50.166 72.8571 56.826 70.3221 61.899 65.2521L70.686 56.4621C72.444 54.7041 72.444 51.8571 70.686 50.0991C68.928 48.341 66.075 48.341 64.32 50.0991ZM19.695 67.3041C19.572 67.2261 19.356 67.0461 19.074 66.7911C14.439 62.5641 11.907 56.5041 11.925 50.2311L12.003 24.8571C12.003 21.5421 9.318 18.8571 6.003 18.8571C2.688 18.8571 0 21.5421 0 24.8571V48.0951L0.042 48.0321C0.327 52.5321 2.055 56.8311 4.983 60.2871L12.516 69.173C13.854 70.5261 15.15 71.5521 16.536 72.4071C17.028 72.7131 17.571 72.8541 18.108 72.8541C19.113 72.8541 20.097 72.3501 20.664 71.4291C21.537 70.0191 21.099 68.1711 19.689 67.3011L19.695 67.3041Z" fill="#EBFFFE"/>
</g>
<defs>
<clipPath id="clip0_8_368">
<rect width="72" height="72" fill="white" transform="translate(0 0.857056)"/>
</clipPath>
</defs>
</svg>
