<svg width="60" height="59" viewBox="0 0 60 59" fill="none" xmlns="http://www.w3.org/2000/svg">
<path d="M60 22.572L50.9984 6.93513L39.0093 13.8347L38.9964 0L20.9535 0.0170727L20.9657 13.8188L9.00611 6.93513L0 22.572L11.9128 29.4295L0 36.2851L9.00611 51.9263L20.9936 45.0259L21.0052 58.857L39.05 58.8435L39.0376 45.0418L50.9984 51.9263L60 36.2851L48.0884 29.4295L60 22.572Z" fill="#00A2B9"/>
<path d="M39.9993 18.7988H24.3186C25.1764 17.5122 26.6119 16.4688 27.8439 16.2479C29.3651 16.5865 30.8579 15.5189 31.3897 15.084C32.3471 14.8767 33.1025 15.2139 33.1025 15.2139L32.8372 14.9219L33.2606 15.0255C32.8127 14.4717 31.9241 14.5539 31.4297 14.6521C30.2822 13.0916 27.686 14.8339 27.686 14.8339C25.8302 15.1259 23.6732 16.7725 22.6849 18.7988H20.0015C20.9897 23.107 24.6888 26.3728 29.206 26.7194V31.897C29.1934 31.9019 29.1805 31.9075 29.1678 31.9121C28.6506 32.0215 26.1026 32.6541 25.796 34.4379C25.5602 35.7848 26.6905 37.215 29.206 38.7951V43.685C27.3605 44.0746 25.8929 45.5019 25.4755 47.3387H34.9418C34.6248 45.9378 33.6932 44.7778 32.4518 44.1291C33.1938 43.729 33.8622 43.1476 34.0191 42.315C34.2348 41.1721 33.4356 39.9736 31.6157 38.6725V32.3605C31.8896 32.2215 32.1722 32.0732 32.4581 31.9096C34.5607 30.7115 35.5234 29.5722 35.4198 28.4253C35.3381 27.5262 34.6274 26.8049 33.2292 26.2257C36.5964 25.1081 39.1958 22.2994 39.9993 18.7988ZM27.194 34.6815C27.3002 34.0464 28.4503 33.5663 29.206 33.3611V37.1002C27.2218 35.7046 27.1547 34.9148 27.194 34.6815ZM32.6232 42.0509C32.5591 42.3971 32.1428 42.713 31.6157 42.9659V40.4637C32.6283 41.3567 32.6585 41.8741 32.6232 42.0509ZM34.0051 28.5566C34.0582 29.1094 33.0047 29.9711 31.6157 30.7569V27.1708C33.7976 27.7974 33.9918 28.4132 34.0051 28.5566Z" fill="#EBFFFE"/>
</svg>
