<svg width="72" height="73" viewBox="0 0 72 73" fill="none" xmlns="http://www.w3.org/2000/svg">
<g clip-path="url(#clip0_8_327)">
<path d="M0 33.8571V18.8571C0 8.93306 8.076 0.857056 18 0.857056C27.924 0.857056 36 8.93306 36 18.8571V33.8571H0ZM0 39.8571V54.8571C0 64.7811 8.076 72.8571 18 72.8571C27.924 72.8571 36 64.7811 36 54.8571V39.8571H0ZM42 18.8571V36.5151L59.769 27.0291L52.575 13.5531C49.335 7.48406 43.146 3.98906 36.714 3.86906C40.014 7.97906 42 13.1871 42 18.8571ZM69.843 45.8961L62.649 32.4201L42 43.4421V54.8571C42 58.8321 41.013 62.5731 39.297 65.8791C44.688 72.7101 54.366 74.9391 62.307 70.7001C71.223 65.9391 74.601 54.8121 69.843 45.8961Z" fill="#EBFFFE"/>
</g>
<defs>
<clipPath id="clip0_8_327">
<rect width="72" height="72" fill="white" transform="translate(0 0.857056)"/>
</clipPath>
</defs>
</svg>
