<svg width="72" height="73" viewBox="0 0 72 73" fill="none" xmlns="http://www.w3.org/2000/svg">
<path d="M36 24.8571H12V12.8571C12 6.23006 17.373 0.857056 24 0.857056C30.627 0.857056 36 6.23006 36 12.8571H39C40.656 12.8571 42 14.2011 42 15.8571C42 17.5131 40.656 18.8571 39 18.8571H36V24.8571ZM30 48.8571H18C16.344 48.8571 15 50.2011 15 51.8571C15 53.5131 16.344 54.8571 18 54.8571H30C31.656 54.8571 33 53.5131 33 51.8571C33 50.2011 31.656 48.8571 30 48.8571ZM51 12.8571C49.344 12.8571 48 14.2011 48 15.8571C48 17.5131 49.344 18.8571 51 18.8571C52.656 18.8571 54 17.5131 54 15.8571C54 14.2011 52.656 12.8571 51 12.8571ZM69 12.8571C67.344 12.8571 66 14.2011 66 15.8571C66 17.5131 67.344 18.8571 69 18.8571C70.656 18.8571 72 17.5131 72 15.8571C72 14.2011 70.656 12.8571 69 12.8571ZM69 6.85706C70.656 6.85706 72 5.51306 72 3.85706C72 2.20106 70.656 0.857056 69 0.857056C67.344 0.857056 66 2.20106 66 3.85706C66 5.51306 67.344 6.85706 69 6.85706ZM69 24.8571C67.344 24.8571 66 26.2011 66 27.8571C66 29.5131 67.344 30.8571 69 30.8571C70.656 30.8571 72 29.5131 72 27.8571C72 26.2011 70.656 24.8571 69 24.8571ZM60 6.85706C58.344 6.85706 57 8.20106 57 9.85706C57 11.5131 58.344 12.8571 60 12.8571C61.656 12.8571 63 11.5131 63 9.85706C63 8.20106 61.656 6.85706 60 6.85706ZM60 18.8571C58.344 18.8571 57 20.2011 57 21.8571C57 23.5131 58.344 24.8571 60 24.8571C61.656 24.8571 63 23.5131 63 21.8571C63 20.2011 61.656 18.8571 60 18.8571ZM48 48.8571V57.8571C48 66.1401 41.283 72.8571 33 72.8571H15C6.717 72.8571 0 66.1401 0 57.8571V48.8571C0 41.8071 3.588 35.0391 9.108 30.8571H38.892C44.412 35.0391 48 41.8071 48 48.8571ZM30 42.8571H18C13.029 42.8571 9 46.8861 9 51.8571C9 56.8281 13.029 60.8571 18 60.8571H30C34.971 60.8571 39 56.8281 39 51.8571C39 46.8861 34.971 42.8571 30 42.8571Z" fill="#EBFFFE"/>
</svg>
