<svg width="72" height="73" viewBox="0 0 72 73" fill="none" xmlns="http://www.w3.org/2000/svg">
<g clip-path="url(#clip0_8_351)">
<path d="M72 48.8571V57.8571H69V66.8571H63V72.8571H54V57.8571H18V72.8571H9V66.8571H3V57.8571H0V48.8571H3V39.8571H9V33.8571H18V48.8571H54V33.8571H63V39.8571H69V48.8571H72ZM25.269 27.8571H34.5L30.27 42.8571H33.867L49.041 20.0751C50.238 18.2691 48.945 15.8571 46.779 15.8571H37.608L43.5 0.857056H30.591L22.62 24.2871C22.083 26.0631 23.412 27.8571 25.269 27.8571Z" fill="#EBFFFE"/>
</g>
<defs>
<clipPath id="clip0_8_351">
<rect width="72" height="72" fill="white" transform="translate(0 0.857056)"/>
</clipPath>
</defs>
</svg>
